<svg id="visual" viewBox="0 0 900 600" width="900" height="600" xmlns="http://www.w3.org/2000/svg" xmlns:xlink="http://www.w3.org/1999/xlink" version="1.1"><rect x="0" y="0" width="900" height="600" fill="#363e49"></rect><defs><linearGradient id="grad1_0" x1="33.3%" y1="0%" x2="100%" y2="100%"><stop offset="20%" stop-color="#575e67" stop-opacity="1"></stop><stop offset="80%" stop-color="#575e67" stop-opacity="1"></stop></linearGradient></defs><defs><linearGradient id="grad1_1" x1="33.3%" y1="0%" x2="100%" y2="100%"><stop offset="20%" stop-color="#575e67" stop-opacity="1"></stop><stop offset="80%" stop-color="#4c535d" stop-opacity="1"></stop></linearGradient></defs><defs><linearGradient id="grad1_2" x1="33.3%" y1="0%" x2="100%" y2="100%"><stop offset="20%" stop-color="#414853" stop-opacity="1"></stop><stop offset="80%" stop-color="#4c535d" stop-opacity="1"></stop></linearGradient></defs><defs><linearGradient id="grad1_3" x1="33.3%" y1="0%" x2="100%" y2="100%"><stop offset="20%" stop-color="#414853" stop-opacity="1"></stop><stop offset="80%" stop-color="#363e49" stop-opacity="1"></stop></linearGradient></defs><defs><linearGradient id="grad2_0" x1="0%" y1="0%" x2="66.7%" y2="100%"><stop offset="20%" stop-color="#575e67" stop-opacity="1"></stop><stop offset="80%" stop-color="#575e67" stop-opacity="1"></stop></linearGradient></defs><defs><linearGradient id="grad2_1" x1="0%" y1="0%" x2="66.7%" y2="100%"><stop offset="20%" stop-color="#4c535d" stop-opacity="1"></stop><stop offset="80%" stop-color="#575e67" stop-opacity="1"></stop></linearGradient></defs><defs><linearGradient id="grad2_2" x1="0%" y1="0%" x2="66.7%" y2="100%"><stop offset="20%" stop-color="#4c535d" stop-opacity="1"></stop><stop offset="80%" stop-color="#414853" stop-opacity="1"></stop></linearGradient></defs><defs><linearGradient id="grad2_3" x1="0%" y1="0%" x2="66.7%" y2="100%"><stop offset="20%" stop-color="#363e49" stop-opacity="1"></stop><stop offset="80%" stop-color="#414853" stop-opacity="1"></stop></linearGradient></defs><g transform="translate(900, 0)"><path d="M0 432.7C-41.6 404.1 -83.1 375.5 -113.4 349C-143.7 322.6 -162.7 298.2 -209.8 288.8C-257 279.5 -332.3 285.1 -350 254.3C-367.7 223.5 -327.8 156.3 -331.9 107.8C-336.1 59.4 -384.4 29.7 -432.7 0L0 0Z" fill="#3b434e"></path><path d="M0 324.5C-31.2 303.1 -62.3 281.6 -85.1 261.8C-107.8 241.9 -122 223.6 -157.4 216.6C-192.8 209.6 -249.3 213.8 -262.5 190.7C-275.8 167.6 -245.8 117.2 -248.9 80.9C-252.1 44.5 -288.3 22.3 -324.5 0L0 0Z" fill="#464e58"></path><path d="M0 216.3C-20.8 202 -41.6 187.8 -56.7 174.5C-71.8 161.3 -81.3 149.1 -104.9 144.4C-128.5 139.7 -166.2 142.6 -175 127.2C-183.9 111.8 -163.9 78.2 -166 53.9C-168 29.7 -192.2 14.8 -216.3 0L0 0Z" fill="#515962"></path><path d="M0 108.2C-10.4 101 -20.8 93.9 -28.4 87.3C-35.9 80.6 -40.7 74.5 -52.5 72.2C-64.3 69.9 -83.1 71.3 -87.5 63.6C-91.9 55.9 -81.9 39.1 -83 27C-84 14.8 -96.1 7.4 -108.2 0L0 0Z" fill="#575e67"></path></g><g transform="translate(0, 600)"><path d="M0 -432.7C31.8 -393.3 63.6 -353.8 113.4 -349C163.2 -344.2 230.9 -374 253.3 -348.7C275.7 -323.3 252.8 -242.8 278.3 -202.2C303.8 -161.6 377.7 -160.8 411.5 -133.7C445.3 -106.6 439 -53.3 432.7 0L0 0Z" fill="#3b434e"></path><path d="M0 -324.5C23.9 -294.9 47.7 -265.4 85.1 -261.8C122.4 -258.2 173.2 -280.5 190 -261.5C206.8 -242.5 189.6 -182.1 208.7 -151.6C227.8 -121.2 283.3 -120.6 308.6 -100.3C334 -80 329.2 -40 324.5 0L0 0Z" fill="#464e58"></path><path d="M0 -216.3C15.9 -196.6 31.8 -176.9 56.7 -174.5C81.6 -172.1 115.5 -187 126.7 -174.3C137.9 -161.7 126.4 -121.4 139.2 -101.1C151.9 -80.8 188.8 -80.4 205.7 -66.9C222.6 -53.3 219.5 -26.7 216.3 0L0 0Z" fill="#515962"></path><path d="M0 -108.2C8 -98.3 15.9 -88.5 28.4 -87.3C40.8 -86.1 57.7 -93.5 63.3 -87.2C68.9 -80.8 63.2 -60.7 69.6 -50.5C75.9 -40.4 94.4 -40.2 102.9 -33.4C111.3 -26.7 109.7 -13.3 108.2 0L0 0Z" fill="#575e67"></path></g></svg>