<svg id="visual" viewBox="0 0 900 600" width="900" height="600" xmlns="http://www.w3.org/2000/svg" xmlns:xlink="http://www.w3.org/1999/xlink" version="1.1"><rect x="0" y="0" width="900" height="600" fill="#202731"></rect><path d="M0 181L21.5 181C43 181 86 181 128.8 189.5C171.7 198 214.3 215 257.2 213.7C300 212.3 343 192.7 385.8 189.3C428.7 186 471.3 199 514.2 204.5C557 210 600 208 642.8 208.2C685.7 208.3 728.3 210.7 771.2 213.2C814 215.7 857 218.3 878.5 219.7L900 221L900 0L878.5 0C857 0 814 0 771.2 0C728.3 0 685.7 0 642.8 0C600 0 557 0 514.2 0C471.3 0 428.7 0 385.8 0C343 0 300 0 257.2 0C214.3 0 171.7 0 128.8 0C86 0 43 0 21.5 0L0 0Z" fill="#ff6f61"></path><path d="M0 180L21.5 177.3C43 174.7 86 169.3 128.8 161.5C171.7 153.7 214.3 143.3 257.2 147.5C300 151.7 343 170.3 385.8 176.7C428.7 183 471.3 177 514.2 167.2C557 157.3 600 143.7 642.8 139C685.7 134.3 728.3 138.7 771.2 146.5C814 154.3 857 165.7 878.5 171.3L900 177L900 0L878.5 0C857 0 814 0 771.2 0C728.3 0 685.7 0 642.8 0C600 0 557 0 514.2 0C471.3 0 428.7 0 385.8 0C343 0 300 0 257.2 0C214.3 0 171.7 0 128.8 0C86 0 43 0 21.5 0L0 0Z" fill="#f76455"></path><path d="M0 107L21.5 112.2C43 117.3 86 127.7 128.8 134.5C171.7 141.3 214.3 144.7 257.2 139.7C300 134.7 343 121.3 385.8 114C428.7 106.7 471.3 105.3 514.2 108.8C557 112.3 600 120.7 642.8 128.5C685.7 136.3 728.3 143.7 771.2 139C814 134.3 857 117.7 878.5 109.3L900 101L900 0L878.5 0C857 0 814 0 771.2 0C728.3 0 685.7 0 642.8 0C600 0 557 0 514.2 0C471.3 0 428.7 0 385.8 0C343 0 300 0 257.2 0C214.3 0 171.7 0 128.8 0C86 0 43 0 21.5 0L0 0Z" fill="#ee5849"></path><path d="M0 104L21.5 103.5C43 103 86 102 128.8 101.5C171.7 101 214.3 101 257.2 93.7C300 86.3 343 71.7 385.8 67.3C428.7 63 471.3 69 514.2 75.7C557 82.3 600 89.7 642.8 88C685.7 86.3 728.3 75.7 771.2 72.8C814 70 857 75 878.5 77.5L900 80L900 0L878.5 0C857 0 814 0 771.2 0C728.3 0 685.7 0 642.8 0C600 0 557 0 514.2 0C471.3 0 428.7 0 385.8 0C343 0 300 0 257.2 0C214.3 0 171.7 0 128.8 0C86 0 43 0 21.5 0L0 0Z" fill="#e64c3d"></path><path d="M0 32L21.5 36.3C43 40.7 86 49.3 128.8 48.3C171.7 47.3 214.3 36.7 257.2 37C300 37.3 343 48.7 385.8 51.2C428.7 53.7 471.3 47.3 514.2 42.5C557 37.7 600 34.3 642.8 35.8C685.7 37.3 728.3 43.7 771.2 44.8C814 46 857 42 878.5 40L900 38L900 0L878.5 0C857 0 814 0 771.2 0C728.3 0 685.7 0 642.8 0C600 0 557 0 514.2 0C471.3 0 428.7 0 385.8 0C343 0 300 0 257.2 0C214.3 0 171.7 0 128.8 0C86 0 43 0 21.5 0L0 0Z" fill="#dd3f31"></path></svg>