<svg id="visual" viewBox="0 0 900 600" width="900" height="600" xmlns="http://www.w3.org/2000/svg" xmlns:xlink="http://www.w3.org/1999/xlink" version="1.1"><rect x="0" y="0" width="900" height="600" fill="#e34c26"></rect><path d="M0 374L129 354L257 440L386 361L514 388L643 382L771 360L900 366L900 601L771 601L643 601L514 601L386 601L257 601L129 601L0 601Z" fill="#f06529"></path><path d="M0 442L129 469L257 475L386 453L514 404L643 474L771 478L900 457L900 601L771 601L643 601L514 601L386 601L257 601L129 601L0 601Z" fill="#dd5c24"></path><path d="M0 453L129 442L257 444L386 485L514 473L643 476L771 485L900 442L900 601L771 601L643 601L514 601L386 601L257 601L129 601L0 601Z" fill="#ca5320"></path><path d="M0 500L129 532L257 535L386 501L514 505L643 489L771 497L900 532L900 601L771 601L643 601L514 601L386 601L257 601L129 601L0 601Z" fill="#b84a1b"></path><path d="M0 532L129 569L257 530L386 537L514 557L643 550L771 543L900 558L900 601L771 601L643 601L514 601L386 601L257 601L129 601L0 601Z" fill="#a64117"></path></svg>