<svg id="visual" viewBox="0 0 900 600" width="900" height="600" xmlns="http://www.w3.org/2000/svg" xmlns:xlink="http://www.w3.org/1999/xlink" version="1.1"><path d="M0 133L13.7 134C27.3 135 54.7 137 82 133C109.3 129 136.7 119 163.8 139C191 159 218 209 245.2 211C272.3 213 299.7 167 327 147C354.3 127 381.7 133 409 133C436.3 133 463.7 127 491 143C518.3 159 545.7 197 573 212C600.3 227 627.7 219 654.8 214C682 209 709 207 736.2 192C763.3 177 790.7 149 818 126C845.3 103 872.7 85 886.3 76L900 67L900 0L886.3 0C872.7 0 845.3 0 818 0C790.7 0 763.3 0 736.2 0C709 0 682 0 654.8 0C627.7 0 600.3 0 573 0C545.7 0 518.3 0 491 0C463.7 0 436.3 0 409 0C381.7 0 354.3 0 327 0C299.7 0 272.3 0 245.2 0C218 0 191 0 163.8 0C136.7 0 109.3 0 82 0C54.7 0 27.3 0 13.7 0L0 0Z" fill="#6198ff"></path><path d="M0 325L13.7 321C27.3 317 54.7 309 82 304C109.3 299 136.7 297 163.8 308C191 319 218 343 245.2 354C272.3 365 299.7 363 327 348C354.3 333 381.7 305 409 294C436.3 283 463.7 289 491 300C518.3 311 545.7 327 573 326C600.3 325 627.7 307 654.8 306C682 305 709 321 736.2 327C763.3 333 790.7 329 818 319C845.3 309 872.7 293 886.3 285L900 277L900 65L886.3 74C872.7 83 845.3 101 818 124C790.7 147 763.3 175 736.2 190C709 205 682 207 654.8 212C627.7 217 600.3 225 573 210C545.7 195 518.3 157 491 141C463.7 125 436.3 131 409 131C381.7 131 354.3 125 327 145C299.7 165 272.3 211 245.2 209C218 207 191 157 163.8 137C136.7 117 109.3 127 82 131C54.7 135 27.3 133 13.7 132L0 131Z" fill="#3c80ff"></path><path d="M0 475L13.7 467C27.3 459 54.7 443 82 436C109.3 429 136.7 431 163.8 442C191 453 218 473 245.2 482C272.3 491 299.7 489 327 478C354.3 467 381.7 447 409 440C436.3 433 463.7 439 491 446C518.3 453 545.7 461 573 460C600.3 459 627.7 449 654.8 448C682 447 709 455 736.2 453C763.3 451 790.7 439 818 431C845.3 423 872.7 419 886.3 417L900 415L900 275L886.3 283C872.7 291 845.3 307 818 317C790.7 327 763.3 331 736.2 325C709 319 682 303 654.8 304C627.7 305 600.3 323 573 324C545.7 325 518.3 309 491 298C463.7 287 436.3 281 409 292C381.7 303 354.3 331 327 346C299.7 361 272.3 363 245.2 352C218 341 191 317 163.8 306C136.7 295 109.3 297 82 302C54.7 307 27.3 315 13.7 319L0 323Z" fill="#0066ff"></path><path d="M0 535L13.7 537C27.3 539 54.7 543 82 548C109.3 553 136.7 559 163.8 558C191 557 218 549 245.2 547C272.3 545 299.7 549 327 547C354.3 545 381.7 537 409 535C436.3 533 463.7 537 491 540C518.3 543 545.7 545 573 543C600.3 541 627.7 535 654.8 536C682 537 709 545 736.2 548C763.3 551 790.7 549 818 542C845.3 535 872.7 523 886.3 517L900 511L900 413L886.3 415C872.7 417 845.3 421 818 429C790.7 437 763.3 449 736.2 451C709 453 682 445 654.8 446C627.7 447 600.3 457 573 458C545.7 459 518.3 451 491 444C463.7 437 436.3 431 409 438C381.7 445 354.3 465 327 476C299.7 487 272.3 489 245.2 480C218 471 191 451 163.8 440C136.7 429 109.3 427 82 434C54.7 441 27.3 457 13.7 465L0 473Z" fill="#0059dd"></path><path d="M0 601L13.7 601C27.3 601 54.7 601 82 601C109.3 601 136.7 601 163.8 601C191 601 218 601 245.2 601C272.3 601 299.7 601 327 601C354.3 601 381.7 601 409 601C436.3 601 463.7 601 491 601C518.3 601 545.7 601 573 601C600.3 601 627.7 601 654.8 601C682 601 709 601 736.2 601C763.3 601 790.7 601 818 601C845.3 601 872.7 601 886.3 601L900 601L900 509L886.3 515C872.7 521 845.3 533 818 540C790.7 547 763.3 549 736.2 546C709 543 682 535 654.8 534C627.7 533 600.3 539 573 541C545.7 543 518.3 541 491 538C463.7 535 436.3 531 409 533C381.7 535 354.3 543 327 545C299.7 547 272.3 543 245.2 545C218 547 191 555 163.8 556C136.7 557 109.3 551 82 546C54.7 541 27.3 537 13.7 535L0 533Z" fill="#004cbb"></path></svg>