<svg id="visual" viewBox="0 0 900 600" width="900" height="600" xmlns="http://www.w3.org/2000/svg" xmlns:xlink="http://www.w3.org/1999/xlink" version="1.1"><path d="M800 600L710 600L710 545L791 545L791 491L809 491L809 436L755 436L755 382L764 382L764 327L665 327L665 273L782 273L782 218L701 218L701 164L710 164L710 109L683 109L683 55L728 55L728 0L900 0L900 55L900 55L900 109L900 109L900 164L900 164L900 218L900 218L900 273L900 273L900 327L900 327L900 382L900 382L900 436L900 436L900 491L900 491L900 545L900 545L900 600L900 600Z" fill="#f0db4f"></path><path d="M539 600L485 600L485 545L629 545L629 491L422 491L422 436L413 436L413 382L620 382L620 327L449 327L449 273L566 273L566 218L458 218L458 164L548 164L548 109L530 109L530 55L440 55L440 0L729 0L729 55L684 55L684 109L711 109L711 164L702 164L702 218L783 218L783 273L666 273L666 327L765 327L765 382L756 382L756 436L810 436L810 491L792 491L792 545L711 545L711 600L801 600Z" fill="#d8c13f"></path><path d="M251 600L287 600L287 545L269 545L269 491L242 491L242 436L278 436L278 382L305 382L305 327L224 327L224 273L251 273L251 218L269 218L269 164L215 164L215 109L215 109L215 55L224 55L224 0L441 0L441 55L531 55L531 109L549 109L549 164L459 164L459 218L567 218L567 273L450 273L450 327L621 327L621 382L414 382L414 436L423 436L423 491L630 491L630 545L486 545L486 600L540 600Z" fill="#c0a830"></path><path d="M197 600L188 600L188 545L161 545L161 491L98 491L98 436L125 436L125 382L179 382L179 327L80 327L80 273L125 273L125 218L179 218L179 164L143 164L143 109L80 109L80 55L80 55L80 0L225 0L225 55L216 55L216 109L216 109L216 164L270 164L270 218L252 218L252 273L225 273L225 327L306 327L306 382L279 382L279 436L243 436L243 491L270 491L270 545L288 545L288 600L252 600Z" fill="#a89020"></path><path d="M0 600L0 600L0 545L0 545L0 491L0 491L0 436L0 436L0 382L0 382L0 327L0 327L0 273L0 273L0 218L0 218L0 164L0 164L0 109L0 109L0 55L0 55L0 0L81 0L81 55L81 55L81 109L144 109L144 164L180 164L180 218L126 218L126 273L81 273L81 327L180 327L180 382L126 382L126 436L99 436L99 491L162 491L162 545L189 545L189 600L198 600Z" fill="#90780f"></path></svg>